<?xml version="1.0" standalone="no"?><!DOCTYPE svg PUBLIC "-//W3C//DTD SVG 1.1//EN" "http://www.w3.org/Graphics/SVG/1.1/DTD/svg11.dtd"><svg t="1775229731006" class="icon" viewBox="0 0 1249 1024" version="1.1" xmlns="http://www.w3.org/2000/svg" p-id="5628" xmlns:xlink="http://www.w3.org/1999/xlink" width="243.9453125" height="200"><path d="M295.050847 950.810034a396.079729 65.657492 0 1 0 792.159458 0 396.079729 65.657492 0 1 0-792.159458 0Z" fill="#EA3300" fill-opacity=".121" p-id="5629"></path><path d="M1240.324339 428.691525c0 97.887458-67.323661 529.355932-558.513898 529.355933-491.172881 0-558.513898-431.468475-558.513899-529.355933 0-97.887458 251.070915-16.314576 558.513899-16.314576 309.282712 0 558.513898-81.572881 558.513898 16.314576z" fill="#FF5D30" p-id="5630"></path><path d="M681.810441 684.292339c309.282712 0 558.513898-157.713356 558.513898-255.61817 0-97.887458-249.231186-16.314576-558.513898-16.314576-309.265356 0-558.513898-79.750508-558.513899 16.314576 0 96.082441 249.248542 255.618169 558.513899 255.61817z" fill="#EA3300" p-id="5631"></path><path d="M1240.324339 428.691525c0 97.887458-251.053559 199.419661-558.513898 199.419661-309.265356 0-558.513898-101.532203-558.513899-199.419661 0-97.887458 249.248542-16.314576 558.513899-16.314576 309.282712 0 558.513898-81.572881 558.513898 16.314576z" fill="#FFBEAC" p-id="5632"></path><path d="M1240.324339 428.691525c0 97.887458-251.053559 199.419661-558.513898 199.419661-309.265356 0-558.513898-101.532203-558.513899-199.419661 0-97.887458 218.337627 14.492203 527.585627 14.492204 309.282712 0 589.442169-112.397017 589.44217-14.50956z" fill="#FF942C" p-id="5633"></path><path d="M443.496136 488.500068l238.314305 139.593763c309.282712 0 558.513898-101.532203 558.513898-199.419662 0-97.887458-249.231186-16.314576-558.513898-16.314576l-238.314305 76.140475" fill="#EA4010" p-id="5634"></path><path d="M1240.324339 428.691525c0-97.887458-251.053559-16.314576-558.513898-16.314576l-238.314305 77.928136" fill="#E2231A" p-id="5635"></path><path d="M932.881356 457.675932c0 52.588475-112.813559 94.277424-251.070915 94.277424-138.257356 0-251.053559-41.688949-251.05356-94.260068 0-52.588475 112.796203-161.358102 251.05356-161.358102s251.053559 110.592 251.053559 161.358102z" fill="#FF642E" p-id="5636"></path><path d="M681.810441 551.953356c-138.257356 0-251.053559-41.688949-251.05356-94.260068 0-52.588475 112.796203-161.358102 251.05356-161.358102" fill="#FFAC5B" p-id="5637"></path><path d="M156.064542 428.691525c0-32.629153 29.105898-45.333695 80.04556-47.138711C165.159051 379.730441 121.491525 388.807593 121.491525 428.674169c1.822373 97.887458 69.128678 529.355932 560.318916 529.355933h16.384C223.370847 947.182644 156.064542 524.773966 156.064542 428.691525z" fill="#FFBEAC" p-id="5638"></path><path d="M607.926237 358.538847c35.093695-12.20122 60.88461-29.765424 57.586983-39.224406-3.297627-9.458983-34.434169-7.220068-69.527864 4.981152h-0.052068c-35.093695 12.218576-60.88461 29.765424-57.586983 39.224407 3.297627 9.458983 34.434169 7.237424 69.527864-4.963797h0.052068zM507.175051 383.357831a9.077153 9.077153 0 0 0 18.189017 0 9.077153 9.077153 0 0 0-18.189017 0zM193.345085 421.41939c25.04461 1.943864 45.715525-1.336407 46.184135-7.324204 0.485966-5.987797-19.438644-12.409492-44.483254-14.353355h-0.017356c-25.04461-1.943864-45.732881 1.336407-46.201491 7.324203-0.46861 5.987797 19.438644 12.426847 44.483254 14.353356h0.034712z" fill="#FFFFFF" p-id="5639"></path><path d="M1007.06061 85.512678L978.47539 1.214915 949.890169 85.512678l28.585221-8.157288zM1007.06061 139.906169l-28.58522 8.157289-28.585221-8.157289 28.585221 84.297763zM949.890169 85.512678l-88.619389 27.196746 88.619389 27.196745-8.57383-27.196745zM1007.06061 139.906169l88.61939-27.196745-88.61939-27.196746 8.573831 27.196746zM89.573966 267.211932l-14.561627-50.748746-16.974102 50.748746 16.974102-4.824949zM89.573966 298.643525l-14.561627 4.82495-16.974102-4.82495 16.974102 50.748746zM58.038237 267.211932l-50.939661 14.50956 50.939661 16.922033-4.859661-16.922033zM89.573966 298.643525l50.939661-16.922033-50.939661-14.50956 4.859661 14.50956zM354.963525 178.818169l35.649085-73.415593-71.315525 38.06156 22.927186 13.60705zM319.297085 216.879729l-20.375865-13.589695-12.721898-24.471865-35.666441 76.140475zM319.297085 143.464136l-68.764204-38.06156 35.666441 73.415593 12.721898-21.746983zM319.297085 216.879729l71.332881 38.078915-35.666441-76.140475-12.739254 24.471865z" fill="#FD7C00" p-id="5640"></path></svg>