<?xml version="1.0" standalone="no"?><!DOCTYPE svg PUBLIC "-//W3C//DTD SVG 1.1//EN" "http://www.w3.org/Graphics/SVG/1.1/DTD/svg11.dtd"><svg t="1775447156942" class="icon" viewBox="0 0 1024 1024" version="1.1" xmlns="http://www.w3.org/2000/svg" p-id="6997" xmlns:xlink="http://www.w3.org/1999/xlink" width="200" height="200"><path d="M78.6 810.6h288.7v129.5H78.6z m433-392.3h288.7v129.5H511.6z" fill="#EF9D3C" p-id="6998"></path><path d="M944.7 404.4H763.3c-7.7 0-13.9 6.2-13.9 13.9s6.2 13.9 13.9 13.9h23.1V534H525.5V432.2h163.8c7.7 0 13.9-6.2 13.9-13.9s-6.2-13.9-13.9-13.9H511.6c-7.7 0-13.9 6.2-13.9 13.9V534H367.3c-7.7 0-13.9 6.2-13.9 13.9v115.7H223c-7.7 0-13.9 6.2-13.9 13.9v119.4H78.6c-7.7 0-13.9 6.2-13.9 13.9v129.5c0 7.7 6.2 13.9 13.9 13.9h136.9c7.7 0 13.9-6.2 13.9-13.9s-6.2-13.9-13.9-13.9h-123V824.5h260.9v101.8h-63.8c-7.7 0-13.9 6.2-13.9 13.9s6.2 13.9 13.9 13.9h655.1c7.7 0 13.9-6.2 13.9-13.9V418.3c-0.1-7.7-6.3-13.9-13.9-13.9z" fill="" p-id="6999"></path><path d="M74.8 367.1c8.4 5.4 206.6 131.7 281.4 131.7 79.1 0 143.4-64.3 143.4-143.4 0-39.2-15.9-74.8-41.5-100.8l53.1-101.1L689 205.8c1.3 0.4 2.6 0.6 3.9 0.6h196.2c38.3 0 69.4-31.1 69.4-69.4 0-38.3-31.1-69.4-69.4-69.4H693c-1.3 0-2.6 0.2-3.9 0.6l-188.8 55.5c-4.4 1.3-7.8 4.6-9.2 8.8-0.4 0.5-54.8 103.9-54.8 103.9-22.9-15.4-50.5-24.4-80.1-24.4-74.7 0-273 126.3-281.4 131.7-8.3 5.3-8.3 18 0 23.4z" fill="" p-id="7000"></path><path d="M930.8 926.3H669.9V824.5h260.9v101.8z" fill="#EF9D3C" p-id="7001"></path><path d="M381.2 824.5h260.9v101.8H381.2z" fill="#F7D04A" p-id="7002"></path><path d="M236.8 691.2h260.9V793H236.8z m144.4-129.5h260.9v101.8H381.2z" fill="#EF9D3C" p-id="7003"></path><path d="M814.2 432.2h116.6V534H814.2z" fill="#F7D04A" p-id="7004"></path><path d="M814.2 691.2h116.6V793H814.2z" fill="#EF9D3C" p-id="7005"></path><path d="M669.9 561.7h260.9v101.8H669.9zM525.5 691.2h260.9V793H525.5zM679.1 100v74l-125.7-37z" fill="#F7D04A" p-id="7006"></path><path d="M471.5 364.4c0.2-3 0.4-6 0.4-9.1 0-28.4-10.3-54.5-27.4-74.7l-42.6 81.1c-2.4 4.6-7.1 7.4-12.3 7.4H271.1c-7.7 0-13.9-6.2-13.9-13.9s6.2-13.9 13.9-13.9h110l42.2-80.2c-18.9-13.5-42.1-21.5-67.1-21.5-43.6 0-149.7 57.2-219.7 98.7 65.2 38.4 171.8 96.5 219.7 96.5 50.3 0.1 93.8-28.5 115.3-70.4z" fill="#E5E5E5" p-id="7007"></path><path d="M356.2 471c60.7 0 110.7-47 115.3-106.6-21.5 41.9-65 70.5-115.3 70.5-47.9 0-154.6-58.1-219.7-96.5-10.2 6.1-19.7 11.8-28 17C174.2 396 306.2 471 356.2 471z" fill="#CCCCCC" p-id="7008"></path><path d="M215.6 341.5h-25.9c-7.7 0-13.9 6.2-13.9 13.9s6.2 13.9 13.9 13.9h25.9c7.7 0 13.9-6.2 13.9-13.9-0.1-7.7-6.3-13.9-13.9-13.9z" fill="" p-id="7009"></path><path d="M930.8 137c0-23-18.7-41.6-41.6-41.6H706.9v62h218.6c3.3-6.1 5.3-13 5.3-20.4z" fill="#62C9CC" p-id="7010"></path><path d="M706.8 178.6h182.3c15.6 0 29.2-8.6 36.3-21.3H706.9v20.4c0 0.3-0.1 0.6-0.1 0.9z" fill="#50A9A9" p-id="7011"></path></svg>