<?xml version="1.0" standalone="no"?><!DOCTYPE svg PUBLIC "-//W3C//DTD SVG 1.1//EN" "http://www.w3.org/Graphics/SVG/1.1/DTD/svg11.dtd"><svg t="1776090300446" class="icon" viewBox="0 0 1024 1024" version="1.1" xmlns="http://www.w3.org/2000/svg" p-id="8325" xmlns:xlink="http://www.w3.org/1999/xlink" width="200" height="200"><path d="M702.65 876.16h-379.2a34.55 34.55 0 0 1-29.91-17.27l-189.61-328.4a34.54 34.54 0 0 1 0-34.54l189.61-328.4a34.55 34.55 0 0 1 29.91-17.27h379.2c12.34 0 23.75 6.59 29.91 17.27l189.61 328.4a34.54 34.54 0 0 1 0 34.54L732.56 858.9a34.553 34.553 0 0 1-29.91 17.26z m-359.27-69.07H682.7l169.67-293.86L682.7 219.36H343.38L173.72 513.22l169.66 293.87z" fill="#040000" p-id="8326"></path><path d="M509.54 668.76l-12.9-49.7h-85.63l-13.68 49.7h-71.55l101.26-333.82h52.78L581.1 668.76h-71.56zM455.2 461.52l-25.02 89.09h48.49l-23.47-89.09zM609.25 668.76V334.94h68.42v333.82h-68.42z" fill="#231815" p-id="8327"></path></svg>